{
    "asset" : {
        "generator" : "Khronos glTF Blender I/O v1.8.19",
        "version" : "2.0"
    },
    "scene" : 0,
    "scenes" : [
        {
            "name" : "Scene",
            "nodes" : [
                1,
                2
            ]
        }
    ],
    "nodes" : [
        {
            "name" : "GardenFountain.obj.cleaner.materialmerger.gles"
        },
        {
            "children" : [
                0
            ],
            "name" : "Sketchfab_model",
            "rotation" : [
                -0.7071068286895752,
                0,
                0,
                0.7071068286895752
            ]
        },
        {
            "mesh" : 0,
            "name" : "GardenFountain",
            "rotation" : [
                0.7071068286895752,
                0,
                0,
                0.7071067094802856
            ]
        }
    ],
    "materials" : [
        {
            "doubleSided" : true,
            "name" : "GardenFountainBase2",
            "pbrMetallicRoughness" : {
                "baseColorFactor" : [
                    0.800000011920929,
                    0.800000011920929,
                    0.800000011920929,
                    1
                ],
                "metallicFactor" : 0,
                "roughnessFactor" : 0.5
            }
        },
        {
            "doubleSided" : true,
            "name" : "GardenFountainInner3",
            "pbrMetallicRoughness" : {
                "baseColorFactor" : [
                    0.800000011920929,
                    0.800000011920929,
                    0.800000011920929,
                    1
                ],
                "metallicFactor" : 0,
                "roughnessFactor" : 0.5
            }
        },
        {
            "doubleSided" : true,
            "name" : "GardenFountainInner2",
            "pbrMetallicRoughness" : {
                "baseColorFactor" : [
                    0.800000011920929,
                    0.800000011920929,
                    0.800000011920929,
                    1
                ],
                "metallicFactor" : 0,
                "roughnessFactor" : 0.5
            }
        },
        {
            "doubleSided" : true,
            "name" : "GardenFountainInner1",
            "pbrMetallicRoughness" : {
                "baseColorFactor" : [
                    0.800000011920929,
                    0.800000011920929,
                    0.800000011920929,
                    1
                ],
                "metallicFactor" : 0,
                "roughnessFactor" : 0.5
            }
        },
        {
            "doubleSided" : true,
            "name" : "GardenFountainBase",
            "pbrMetallicRoughness" : {
                "baseColorFactor" : [
                    0.800000011920929,
                    0.800000011920929,
                    0.800000011920929,
                    1
                ],
                "metallicFactor" : 0,
                "roughnessFactor" : 0.5
            }
        },
        {
            "doubleSided" : true,
            "name" : "GardenFountainTop",
            "pbrMetallicRoughness" : {
                "baseColorFactor" : [
                    0.800000011920929,
                    0.800000011920929,
                    0.800000011920929,
                    1
                ],
                "metallicFactor" : 0,
                "roughnessFactor" : 0.5
            }
        }
    ],
    "meshes" : [
        {
            "name" : "GardenFountain",
            "primitives" : [
                {
                    "attributes" : {
                        "POSITION" : 0,
                        "NORMAL" : 1,
                        "TEXCOORD_0" : 2
                    },
                    "indices" : 3,
                    "material" : 0
                },
                {
                    "attributes" : {
                        "POSITION" : 4,
                        "NORMAL" : 5,
                        "TEXCOORD_0" : 6
                    },
                    "indices" : 7,
                    "material" : 1
                },
                {
                    "attributes" : {
                        "POSITION" : 8,
                        "NORMAL" : 9,
                        "TEXCOORD_0" : 10
                    },
                    "indices" : 11,
                    "material" : 2
                },
                {
                    "attributes" : {
                        "POSITION" : 12,
                        "NORMAL" : 13,
                        "TEXCOORD_0" : 14
                    },
                    "indices" : 15,
                    "material" : 3
                },
                {
                    "attributes" : {
                        "POSITION" : 16,
                        "NORMAL" : 17,
                        "TEXCOORD_0" : 18
                    },
                    "indices" : 19,
                    "material" : 4
                },
                {
                    "attributes" : {
                        "POSITION" : 20,
                        "NORMAL" : 21,
                        "TEXCOORD_0" : 22
                    },
                    "indices" : 23,
                    "material" : 5
                }
            ]
        }
    ],
    "accessors" : [
        {
            "bufferView" : 0,
            "componentType" : 5126,
            "count" : 132,
            "max" : [
                125,
                125,
                125
            ],
            "min" : [
                -125,
                -125,
                75.55670166015625
            ],
            "type" : "VEC3"
        },
        {
            "bufferView" : 1,
            "componentType" : 5126,
            "count" : 132,
            "type" : "VEC3"
        },
        {
            "bufferView" : 2,
            "componentType" : 5126,
            "count" : 132,
            "type" : "VEC2"
        },
        {
            "bufferView" : 3,
            "componentType" : 5123,
            "count" : 576,
            "type" : "SCALAR"
        },
        {
            "bufferView" : 4,
            "componentType" : 5126,
            "count" : 561,
            "max" : [
                19.808399200439453,
                19.808399200439453,
                24.039600372314453
            ],
            "min" : [
                -19.808399200439453,
                -19.808399200439453,
                -36.2765998840332
            ],
            "type" : "VEC3"
        },
        {
            "bufferView" : 5,
            "componentType" : 5126,
            "count" : 561,
            "type" : "VEC3"
        },
        {
            "bufferView" : 6,
            "componentType" : 5126,
            "count" : 561,
            "type" : "VEC2"
        },
        {
            "bufferView" : 7,
            "componentType" : 5123,
            "count" : 2112,
            "type" : "SCALAR"
        },
        {
            "bufferView" : 8,
            "componentType" : 5126,
            "count" : 693,
            "max" : [
                41.49440002441406,
                41.49440002441406,
                75.0020980834961
            ],
            "min" : [
                -41.49440002441406,
                -41.49440002441406,
                0.036699701100587845
            ],
            "type" : "VEC3"
        },
        {
            "bufferView" : 9,
            "componentType" : 5126,
            "count" : 693,
            "type" : "VEC3"
        },
        {
            "bufferView" : 10,
            "componentType" : 5126,
            "count" : 693,
            "type" : "VEC2"
        },
        {
            "bufferView" : 11,
            "componentType" : 5123,
            "count" : 2688,
            "type" : "SCALAR"
        },
        {
            "bufferView" : 12,
            "componentType" : 5126,
            "count" : 520,
            "max" : [
                66.4979019165039,
                66.49800109863281,
                75.0020980834961
            ],
            "min" : [
                -66.49800109863281,
                -66.4979019165039,
                39.089599609375
            ],
            "type" : "VEC3"
        },
        {
            "bufferView" : 13,
            "componentType" : 5126,
            "count" : 520,
            "type" : "VEC3"
        },
        {
            "bufferView" : 14,
            "componentType" : 5126,
            "count" : 520,
            "type" : "VEC2"
        },
        {
            "bufferView" : 15,
            "componentType" : 5123,
            "count" : 1920,
            "type" : "SCALAR"
        },
        {
            "bufferView" : 16,
            "componentType" : 5126,
            "count" : 256,
            "max" : [
                125,
                125,
                125
            ],
            "min" : [
                -125,
                -125,
                74.17970275878906
            ],
            "type" : "VEC3"
        },
        {
            "bufferView" : 17,
            "componentType" : 5126,
            "count" : 256,
            "type" : "VEC3"
        },
        {
            "bufferView" : 18,
            "componentType" : 5126,
            "count" : 256,
            "type" : "VEC2"
        },
        {
            "bufferView" : 19,
            "componentType" : 5123,
            "count" : 1050,
            "type" : "SCALAR"
        },
        {
            "bufferView" : 20,
            "componentType" : 5126,
            "count" : 1022,
            "max" : [
                12.040200233459473,
                12.040200233459473,
                -24.206300735473633
            ],
            "min" : [
                -12.040200233459473,
                -12.040200233459473,
                -126.60399627685547
            ],
            "type" : "VEC3"
        },
        {
            "bufferView" : 21,
            "componentType" : 5126,
            "count" : 1022,
            "type" : "VEC3"
        },
        {
            "bufferView" : 22,
            "componentType" : 5126,
            "count" : 1022,
            "type" : "VEC2"
        },
        {
            "bufferView" : 23,
            "componentType" : 5123,
            "count" : 5274,
            "type" : "SCALAR"
        }
    ],
    "bufferViews" : [
        {
            "buffer" : 0,
            "byteLength" : 1584,
            "byteOffset" : 0
        },
        {
            "buffer" : 0,
            "byteLength" : 1584,
            "byteOffset" : 1584
        },
        {
            "buffer" : 0,
            "byteLength" : 1056,
            "byteOffset" : 3168
        },
        {
            "buffer" : 0,
            "byteLength" : 1152,
            "byteOffset" : 4224
        },
        {
            "buffer" : 0,
            "byteLength" : 6732,
            "byteOffset" : 5376
        },
        {
            "buffer" : 0,
            "byteLength" : 6732,
            "byteOffset" : 12108
        },
        {
            "buffer" : 0,
            "byteLength" : 4488,
            "byteOffset" : 18840
        },
        {
            "buffer" : 0,
            "byteLength" : 4224,
            "byteOffset" : 23328
        },
        {
            "buffer" : 0,
            "byteLength" : 8316,
            "byteOffset" : 27552
        },
        {
            "buffer" : 0,
            "byteLength" : 8316,
            "byteOffset" : 35868
        },
        {
            "buffer" : 0,
            "byteLength" : 5544,
            "byteOffset" : 44184
        },
        {
            "buffer" : 0,
            "byteLength" : 5376,
            "byteOffset" : 49728
        },
        {
            "buffer" : 0,
            "byteLength" : 6240,
            "byteOffset" : 55104
        },
        {
            "buffer" : 0,
            "byteLength" : 6240,
            "byteOffset" : 61344
        },
        {
            "buffer" : 0,
            "byteLength" : 4160,
            "byteOffset" : 67584
        },
        {
            "buffer" : 0,
            "byteLength" : 3840,
            "byteOffset" : 71744
        },
        {
            "buffer" : 0,
            "byteLength" : 3072,
            "byteOffset" : 75584
        },
        {
            "buffer" : 0,
            "byteLength" : 3072,
            "byteOffset" : 78656
        },
        {
            "buffer" : 0,
            "byteLength" : 2048,
            "byteOffset" : 81728
        },
        {
            "buffer" : 0,
            "byteLength" : 2100,
            "byteOffset" : 83776
        },
        {
            "buffer" : 0,
            "byteLength" : 12264,
            "byteOffset" : 85876
        },
        {
            "buffer" : 0,
            "byteLength" : 12264,
            "byteOffset" : 98140
        },
        {
            "buffer" : 0,
            "byteLength" : 8176,
            "byteOffset" : 110404
        },
        {
            "buffer" : 0,
            "byteLength" : 10548,
            "byteOffset" : 118580
        }
    ],
    "buffers" : [
        {
            "byteLength" : 129128,
            "uri" : "data:application/octet-stream;base64,"
        }
    ]
}
